<svg width="37" height="14" viewBox="0 0 37 14" fill="none" xmlns="http://www.w3.org/2000/svg">
<g clip-path="url(#clip0_29_165)">
<path d="M5.50836 4.77909C6.36724 4.77909 6.9396 4.93715 7.22579 5.25371C7.51186 5.57026 7.57993 6.11358 7.43031 6.88343C7.2739 7.68516 6.97315 8.25743 6.52689 8.60026C6.08073 8.9432 5.40178 9.11439 4.49038 9.11439H3.11523L3.95932 4.77909H5.50836ZM0 13.5031H2.26078L2.79711 10.7491H4.73341C5.58797 10.7491 6.29076 10.6597 6.84273 10.4803C7.3945 10.3014 7.89589 10.0009 8.34733 9.57911C8.72628 9.23165 9.03264 8.84823 9.26748 8.42895C9.50188 8.01011 9.66854 7.54755 9.76703 7.0416C10.0062 5.81371 9.8256 4.85726 9.22595 4.17214C8.6265 3.48703 7.67227 3.14441 6.36443 3.14441H2.0172L0 13.5031ZM11.4274 0.390381H13.6703L13.134 3.14441H15.1321C16.3895 3.14441 17.2567 3.36331 17.734 3.801C18.2112 4.23868 18.3543 4.94813 18.1633 5.9287L17.2248 10.7492H14.9464L15.8386 6.1658C15.9402 5.64445 15.903 5.28881 15.7265 5.09909C15.5502 4.90948 15.1751 4.81462 14.6012 4.81462H12.8086L11.6533 10.7491H9.41008L11.4274 0.390381ZM23.1539 4.77909C24.0128 4.77909 24.5852 4.93715 24.8713 5.25371C25.1574 5.57026 25.2256 6.11358 25.0759 6.88343C24.9194 7.68516 24.6187 8.25743 24.1724 8.60026C23.7263 8.9432 23.0473 9.11439 22.1359 9.11439H20.7608L21.6049 4.77909H23.1539ZM17.6455 13.5031H19.9063L20.4424 10.7491H22.379C23.2333 10.7491 23.9362 10.6597 24.4882 10.4803C25.0399 10.3014 25.5414 10.0009 25.9929 9.57911C26.3717 9.23165 26.6782 8.84823 26.913 8.42895C27.1474 8.01011 27.3141 7.54755 27.4125 7.0416C27.6517 5.81371 27.4713 4.85726 26.8716 4.17214C26.2718 3.48703 25.3178 3.14441 24.01 3.14441H19.6625L17.6457 13.5031" fill="white"/>
<path d="M34.1911 5.18161C33.5813 3.71684 33.0545 2.45137 33.5692 1.56706C33.7605 1.29874 33.9792 1.16275 34.2188 1.16275C34.7015 1.16275 35.1422 1.68959 35.1465 1.69497L35.7615 2.44006L35.3771 1.55446C35.3494 1.49093 34.6883 0 33.5017 0C33.0867 0 32.6617 0.186488 32.2385 0.55408L32.225 0.567754C31.1992 1.75139 32.2079 3.98634 33.0978 5.95803L33.1 5.96277L33.7604 7.49515C34.0664 8.27793 34.3603 9.21898 34.1768 9.9041C33.8911 10.9782 32.9358 11.7183 32.9262 11.7256L32.3075 12.1986L33.0504 11.9634C33.1206 11.9413 34.7771 11.4022 35.1738 9.96956C35.422 8.79701 35.1095 7.62361 34.7929 6.71432C34.7505 6.75017 34.8341 6.6804 34.7929 6.71432L34.216 5.24169" fill="white"/>
<path d="M36.0194 1.01088L35.2496 0.172119L35.7994 1.16852C35.8063 1.1809 36.4743 2.42634 35.6308 3.88282C35.3131 4.33138 34.8379 4.78802 34.2163 5.24164L33.0982 5.9583C33.0863 5.9316 33.0922 5.94495 33.0982 5.95809L33.0589 5.98651C31.8221 6.69661 30.6655 7.13171 30.6462 7.13936C28.9267 7.9034 27.8548 9.09306 27.7055 10.4032C27.5923 11.397 28.0473 12.3578 28.9538 13.0392L28.9657 13.0472C29.5356 13.3885 30.1522 13.5617 30.7981 13.5617C32.496 13.5617 33.8202 12.389 33.8759 12.3389L34.7015 11.5968L33.7207 12.1177C33.7124 12.122 32.8954 12.5505 32.0412 12.5505C31.2796 12.5505 30.7316 12.2115 30.4122 11.5427C30.0042 10.0945 31.4345 9.1062 33.0903 7.96262C33.31 7.8108 33.5361 7.65467 33.7607 7.49532C33.762 7.49887 33.7732 7.48251 33.7747 7.48606L34.7546 6.75927C34.7694 6.73623 34.7945 6.71836 34.7932 6.71438C35.6075 6.04444 36.6717 5.00228 36.9201 3.53999C37.1123 2.21918 36.064 1.05966 36.0194 1.01088Z" fill="#0F0F0F"/>
</g>
<defs>
<clipPath id="clip0_29_165">
<rect width="37" height="13.5667" fill="white"/>
</clipPath>
</defs>
</svg>
