<svg width="30" height="15" viewBox="0 0 30 15" fill="none" xmlns="http://www.w3.org/2000/svg">
<path d="M2.2737 3.33698H6.5349C7.7856 3.34748 8.6919 3.70808 9.2538 4.41818C9.8157 5.12828 10.0011 6.09818 9.8103 7.32788C9.7362 7.88978 9.5718 8.44087 9.3174 8.98147C9.0735 9.52207 8.7345 10.0096 8.2998 10.4443C7.7697 10.9954 7.2027 11.3452 6.5985 11.4937C5.9943 11.6422 5.3688 11.7163 4.7223 11.7163H2.8143L2.2101 14.7373H0L2.2737 3.33698ZM4.134 5.14958L3.18 9.91957C3.2436 9.93007 3.3072 9.93548 3.3708 9.93548C3.4449 9.93548 3.5193 9.93548 3.5934 9.93548C4.611 9.94598 5.4591 9.84548 6.1374 9.63338C6.8157 9.41078 7.2717 8.63707 7.5048 7.31197C7.6956 6.19897 7.5048 5.55757 6.9324 5.38807C6.3705 5.21857 5.6658 5.13908 4.8177 5.14958C4.6905 5.16008 4.5687 5.16548 4.452 5.16548C4.3461 5.16548 4.2348 5.16548 4.1181 5.16548L4.134 5.14958Z" fill="black"/>
<path d="M12.3282 0.300049H14.5224L13.9023 3.33695H15.8739C16.9551 3.35825 17.7606 3.58085 18.2907 4.00475C18.8313 4.42865 18.9903 5.23445 18.7677 6.42155L17.7024 11.7162H15.4764L16.494 6.66005C16.5999 6.12995 16.5681 5.75375 16.3986 5.53115C16.2291 5.30855 15.8634 5.19725 15.3015 5.19725L13.5366 5.18135L12.2328 11.7162H10.0386L12.3282 0.300049Z" fill="black"/>
<path d="M21.1238 3.33698H25.385C26.6357 3.34748 27.542 3.70808 28.1039 4.41818C28.6658 5.12828 28.8512 6.09818 28.6604 7.32788C28.5863 7.88978 28.4219 8.44087 28.1675 8.98147C27.9236 9.52207 27.5846 10.0096 27.1499 10.4443C26.6198 10.9954 26.0528 11.3452 25.4486 11.4937C24.8444 11.6422 24.2189 11.7163 23.5724 11.7163H21.6644L21.0602 14.7373H18.8501L21.1238 3.33698ZM22.9841 5.14958L22.0301 9.91957C22.0937 9.93007 22.1573 9.93548 22.2209 9.93548C22.295 9.93548 22.3694 9.93548 22.4435 9.93548C23.4611 9.94598 24.3092 9.84548 24.9875 9.63338C25.6658 9.41078 26.1218 8.63707 26.3549 7.31197C26.5457 6.19897 26.3549 5.55757 25.7825 5.38807C25.2206 5.21857 24.5159 5.13908 23.6678 5.14958C23.5406 5.16008 23.4188 5.16548 23.3021 5.16548C23.1962 5.16548 23.0849 5.16548 22.9682 5.16548L22.9841 5.14958Z" fill="black"/>
</svg>
