<svg width="60" height="22" viewBox="0 0 60 22" fill="none" xmlns="http://www.w3.org/2000/svg">
<g clip-path="url(#clip0_29_165)">
<path d="M8.93248 7.74994C10.3252 7.74994 11.2534 8.00626 11.7175 8.51959C12.1814 9.03293 12.2918 9.91398 12.0492 11.1624C11.7955 12.4625 11.3078 13.3905 10.5841 13.9464C9.86064 14.5025 8.75965 14.7802 7.28169 14.7802H5.05172L6.42052 7.74994H8.93248ZM0 21.897H3.66612L4.53586 17.431H7.6758C9.06157 17.431 10.2012 17.2861 11.0963 16.9952C11.9911 16.705 12.8041 16.2177 13.5362 15.5338C14.1507 14.9703 14.6475 14.3485 15.0283 13.6686C15.4085 12.9894 15.6787 12.2393 15.8384 11.4189C16.2262 9.4277 15.9334 7.87671 14.961 6.76571C13.9889 5.65471 12.4415 5.09912 10.3207 5.09912H3.27114L0 21.897ZM18.5309 0.633118H22.168L21.2984 5.09912H24.5386C26.5776 5.09912 27.9838 5.45409 28.7578 6.16385C29.5317 6.87361 29.7637 8.02407 29.4541 9.61418L27.9322 17.4312H24.2374L25.6842 9.99866C25.849 9.15323 25.7886 8.57652 25.5024 8.26886C25.2166 7.96139 24.6082 7.80756 23.6776 7.80756H20.7707L18.8972 17.431H15.2596L18.5309 0.633118ZM37.5469 7.74994C38.9397 7.74994 39.8678 8.00626 40.3319 8.51959C40.7958 9.03293 40.9064 9.91398 40.6636 11.1624C40.4099 12.4625 39.9222 13.3905 39.1985 13.9464C38.475 14.5025 37.3741 14.7802 35.8961 14.7802H33.6661L35.0349 7.74994H37.5469ZM28.6144 21.897H32.2805L33.1499 17.431H36.2902C37.6756 17.431 38.8155 17.2861 39.7106 16.9952C40.6053 16.705 41.4185 16.2177 42.1506 15.5338C42.765 14.9703 43.2619 14.3485 43.6427 13.6686C44.0229 12.9894 44.2931 12.2393 44.4527 11.4189C44.8406 9.4277 44.548 7.87671 43.5756 6.76571C42.603 5.65471 41.0559 5.09912 38.9351 5.09912H31.8852L28.6146 21.897" fill="white"/>
<path d="M55.4455 8.4026C54.4567 6.0273 53.6023 3.97519 54.4371 2.54117C54.7472 2.10606 55.1018 1.88554 55.4905 1.88554C56.2731 1.88554 56.9879 2.73987 56.9949 2.7486L57.9921 3.95686L57.3687 2.52075C57.3239 2.41773 56.2518 0 54.3276 0C53.6546 0 52.9654 0.302413 52.2792 0.898508L52.2573 0.920683C50.5938 2.8401 52.2295 6.46433 53.6726 9.66167L53.6761 9.66935L54.7471 12.1543C55.2433 13.4237 55.7198 14.9497 55.4223 16.0607C54.9591 17.8025 53.4099 19.0026 53.3943 19.0145L52.391 19.7815L53.5957 19.4002C53.7096 19.3642 56.3957 18.4901 57.0391 16.1669C57.4416 14.2654 56.9349 12.3626 56.4215 10.8881C56.3527 10.9462 56.4883 10.8331 56.4215 10.8881L55.4859 8.50003" fill="white"/>
<path d="M58.41 1.63915L57.1617 0.278992L58.0532 1.89477C58.0644 1.91485 59.1477 3.93448 57.7798 6.29634C57.2646 7.02374 56.494 7.76423 55.4861 8.49983L53.673 9.66199C53.6536 9.61869 53.6632 9.64034 53.673 9.66164L53.6091 9.70774C51.6036 10.8592 49.728 11.5648 49.6967 11.5772C46.9084 12.8162 45.1701 14.7454 44.928 16.87C44.7444 18.4815 45.4822 20.0395 46.9523 21.1446L46.9715 21.1575C47.8957 21.711 48.8956 21.9918 49.943 21.9918C52.6964 21.9918 54.8438 20.0902 54.934 20.009L56.2729 18.8054L54.6823 19.6502C54.6689 19.6572 53.3441 20.3521 51.9589 20.3521C50.7239 20.3521 49.8353 19.8022 49.3173 18.7178C48.6556 16.3694 50.9751 14.7667 53.66 12.9122C54.0164 12.666 54.383 12.4129 54.7472 12.1545C54.7493 12.1602 54.7675 12.1337 54.77 12.1394L56.359 10.9609C56.383 10.9235 56.4237 10.8945 56.4216 10.8881C57.742 9.80167 59.4678 8.11169 59.8707 5.7404C60.1822 3.59855 58.4823 1.71825 58.41 1.63915Z" fill="#0F0F0F"/>
</g>
<defs>
<clipPath id="clip0_29_165">
<rect width="60" height="22" fill="white"/>
</clipPath>
</defs>
</svg>
